<mxfile host="app.diagrams.net" modified="2022-09-07T12:12:01.907Z" agent="5.0 (Windows NT 10.0; Win64; x64) AppleWebKit/537.36 (KHTML, like Gecko) Chrome/104.0.5112.102 Safari/537.36 OPR/90.0.4480.84 (Edition Yx 05)" etag="mU1t4K4A_C7z2_rh9WW7" version="20.2.8" type="github">
  <diagram id="WXinMn69zn70L5IAo21-" name="Страница 1">
    <mxGraphModel dx="2514" dy="1560" grid="1" gridSize="10" guides="1" tooltips="1" connect="1" arrows="1" fold="1" page="1" pageScale="1" pageWidth="1200" pageHeight="1920" math="0" shadow="0">
      <root>
        <mxCell id="0" />
        <mxCell id="1" parent="0" />
      </root>
    </mxGraphModel>
  </diagram>
</mxfile>
